<svg xmlns="http://www.w3.org/2000/svg" viewBox="0 0 158.6 40">
<!-- SVG created with Arrow, by QuiverAI (https://quiver.ai) -->
  <style type="text/css">.cls-0 {fill:#010101;}</style>
  <path class="cls-0" d="m7 3.6c-4.1 0.3-7.2 3.7-7.2 7.9v16.9c0 4.4 3 7.6 7.5 7.6h17.4c4.5 0 7.5-3.1 7.5-7.6v-16.7c-0.1-4.5-3.2-8.1-7.5-8.1h-17.7zm17.7 3c2.9 0 5 2.1 5 4.9v16.9c0 2.8-2.1 4.6-4.7 4.6h-17.8c-2.5 0-4.6-1.6-4.6-4.3v-17.2c0-2.8 1.9-4.9 4.5-4.9h17.6z"/>
  <path class="cls-0" d="m46.6 3.6c-4.2 0.3-7.7 3.4-7.7 7.9v16.7c0 4.6 3.3 7.8 7.7 7.8h18.1c4.5 0 7.7-3 7.7-7.5v-17c0-4.2-3-7.9-7.5-7.9h-18.3zm18.3 3c2.9 0 4.7 2.1 4.7 5v16.7c0 2.8-1.9 4.8-4.9 4.8h-18c-2.6 0-4.9-1.8-4.9-4.8v-16.6c0-3.1 1.9-5.1 4.9-5.1h18.2z"/>
  <path class="cls-0" d="m85.9 3.6c-4.1 0.3-7.4 3.4-7.4 8v16.7c0 4.3 3.3 7.6 7.5 7.6h17.8c4.5 0.1 7.8-3 7.8-7.5v-16.8c0-4.5-3.1-8-7.8-8h-17.9zm18 3c2.6 0 4.7 1.9 4.7 4.8v16.4c0.2 2.9-1.8 5.1-4.8 5.2h-17.8c-2.6 0-4.7-1.7-4.7-4.6v-16.8c0-3 2-5 5-5h17.6z"/>
  <path class="cls-0" d="m144.1 3.5h-1.2v1.9h1.3c1.3 0 2.5 0.2 3.8 0.7l0.3-1.9c-1.2-0.6-2.6-0.7-4.2-0.7zm-18.1 0.3v1.8c1-0.1 5.8 0 5.8 0v-1.8h-5.8zm-4.1 0.8c-1.6 0.8-3.1 2.8-3.2 4.7h2c0.3-1.4 0.8-2.2 1.9-2.9l-0.7-1.8zm13.1-0.8v1.8h5.2v-1.8h-5.2zm16.2 2.8-1.6 1.1c0.4 0.8 0.5 1.2 0.5 2.1h2.1c0-1.1-0.4-2.4-1-3.2zm-0.9 6.7v5.4h1.9v-5.4h-1.9zm-31.9-0.8v5.3h2v-5.3h-2zm31.9 9.9v5.3h2v-5.3h-2zm-32.2-1v5.1h1.9v-3.3l0.1-1.8h-2zm0.5 8.4c0.1 1.4 0.5 2.3 1 3.2l1.5-1.3-0.3-1.9h-2.2zm31 1.4c-0.2 1.2-0.7 1.9-1.8 2.6l0.7 1.8c1.9-0.7 3-2.3 3.4-4.4h-2.3zm-9.6 3.3h5.1v1.8h-5.1v-1.8zm-8.7 0h5.5v1.8h-5.5v-1.8zm-6.7-0.5-0.9 1.6c1.1 0.5 2.1 0.7 4.3 0.7v-1.8c-1.5 0-2.5-0.2-3.4-0.5z"/>
</svg>
