<svg xmlns="http://www.w3.org/2000/svg" viewBox="0 0 100 100">
<!-- SVG created with Arrow, by QuiverAI (https://quiver.ai) -->
  <style type="text/css">.cls-0 {fill:#000000;}</style>
  <path class="cls-0" d="m51.1 0c-24.4-0.4-45.5 16.8-50.6 41.2-4.9 24.7 9.1 49.4 32.6 57 23.3 7.8 49.3-0.9 60.2-21.2 15.4-26.6 4.4-59.9-22.4-73.2-6.2-2.7-12.9-3.8-19.8-3.8zm-1 7c22.4 0 42.8 17.8 42.7 43.3 0 18.9-13 35.7-29.7 40.7-14.5 4.5-30.9 1.8-41.5-7.9-8-7.3-13.4-17.8-14.3-30.4-0.7-9.5 2.1-19.1 7.7-27.1 6.4-9 17.3-17.9 32.6-18.6h2.5z"/>
  <path class="cls-0" d="m38.4 17.9v6c1.5 0 4.6-0.7 4.7 2.8v50.8h13.5v-54c0-3.5-1.5-5.5-5.2-5.5h-13v-0.1z"/>
  <path class="cls-0" d="m27.7 30.6c-2 0-5.4 0.7-5.4 5.7v41.2h13.5v-46.9h-8.1z"/>
  <path class="cls-0" d="m64 30.6v46.9h13.4l0.1-41c0-3.3-1.3-5.7-5.2-5.9h-8.3z"/>
</svg>