<svg xmlns="http://www.w3.org/2000/svg" viewBox="0 0 128 128">
<!-- SVG created with Arrow, by QuiverAI (https://quiver.ai) -->
  <path d="m64.1 1.4c-34.1 0-62.5 27.5-62.5 62.8 0 32.9 26.4 62.8 62.5 62.8 35 0 62.4-27.7 62.4-62.6 0-32.6-26.2-63-62.4-63zm0 121.5c-32.8 0-58.7-25.6-58.7-58.7 0-27.6 23.3-59.1 58.5-59.1 32.9 0 58.9 26.3 58.9 59.1 0 31.7-25.2 58.7-58.7 58.7z"/>
  <path d="m64.1 26.6c-8.2 0-15.6 2.5-21.7 7.1-2.9 2.1-5.4 4.7-7.8 7.6l-1.6 2.2c-3.8 5.8-6.6 12.4-6.6 20.2 0 13.2 6.8 24.6 17 31.5 5.3 3.5 12.7 6.3 20.7 6.3 6.2 0 11.7-1.1 17.3-3.8 11.4-5.5 20.1-16.9 20.2-33.4 0-13.4-7.4-24.9-18.2-32-5.3-3.5-12-5.6-19.3-5.7zm-0.1 73.1c-18.4 0-35.6-14.3-35.6-35.5h35.7v-35.6c17.9 0 35.4 14.6 35.4 35.4h-35.4l-0.1 35.7z"/>
  <path d="m54.6 24.4 3.6-0.5 0.4-10.6 3.6 8h3l3.6-7.9 0.3 10.4 3.7 0.6-0.4-15.3-5.2-0.5-3.5 8.8-3.5-8.8c-0.4 0-4.4 0.5-4.9 0.5l-0.7 15.3z"/>
  <path d="m90.5 33.3h0.5l7.5-3.7-4.2 7.2 2.9 3 12.9-7.4-2.4-2.7-8.8 5.2 3.9-7.1-2.5-2.5-7.4 3.6 5.5-8.3-2.9-2.5-8 12.6z"/>
  <path d="m29.1 41.3 8.4-8.7c1.8-1.8 2.4-4.3 0.4-6.2-1-0.9-2.4-1.4-4.1-0.7 0.3-1.2-0.1-2.8-1.4-3.9-2.3-1.6-4.8-0.7-6.6 1-1.3 1.2-6.4 6.9-7.6 8.6l10.9 9.9zm-2.1-6.6 5.8-5.9c1.6-1.5 2.6-0.9 3-0.3 0.5 0.7 0.2 1.3-0.7 2.3l-5.7 5.9-2.4-2zm-4.3-3.8c1.2-1.4 3.7-4.2 5.3-5.8 1.3-1.3 2.2-1.4 2.9-0.6 0.7 0.9 0.5 1.7-0.6 2.9l-5.4 5.5-2.2-2z"/>
</svg>