<svg xmlns="http://www.w3.org/2000/svg" viewBox="0 0 100 100">
<!-- SVG created with Arrow, by QuiverAI (https://quiver.ai) -->
  <path d="m50 0c-28-0.1-50 21.4-50 49.8-0.1 24.7 20.1 50.1 49.6 50.5 25.3 0.3 49.9-19.1 50.7-48 0.7-26-20.4-52.2-50.3-52.3zm-0.5 93.5c-23.3-0.2-42.8-18.2-42.9-43.1 0-20.4 16.5-43.1 41-43.8 23.7-0.8 45.7 17.7 45.9 43.3 0 23.9-19.1 43.8-44 43.6z"/>
  <path d="m67.3 39.6v32.4c-0.9 0.9-1.8 1.8-3.2 3.1h-13.1l-3.2-3.1v-5.8h4.3l10.5-9.7v-29.3l-10.6-9.5h-19.1l-10.7 9.5v29.3l10.7 9.7h4.5v9.3l10.6 9.4h19.3l10.5-9.3v-36h-10.5zm-15.2 13.7-2.9 2.9h-1.4v-16.6h-10.4v16.6h-1.4l-3.2-2.9v-22.9l3.3-2.7h12.9l3.1 2.7v22.9z"/>
</svg>