<svg xmlns="http://www.w3.org/2000/svg" viewBox="0 0 120 120">
<!-- SVG created with Arrow, by QuiverAI (https://quiver.ai) -->
  <style type="text/css">.cls-0 {fill:#000000;}</style>
  <path class="cls-0" d="m60.1 0c-33.4 0-60.4 27.1-60.4 60.2s25.3 60.3 60.1 60.8c31 0.4 60.2-22.7 60.5-60.6 0.2-29.1-25.5-60.4-60.2-60.4zm-0.2 112.9c-29.1 0.1-49.1-22.6-52.3-46.3-0.7-6.2-0.3-12.5 0.2-14.7 1.2-6.5 3.3-12.7 6.7-18.2 2.7-4.4 6-8.4 9.7-11.9 6.7-6.2 15.5-11.4 26.5-13.7 2.5-0.5 5.9-0.9 8.3-0.9 14.7-0.3 27 4.4 37 13 6.3 5.8 11.6 13.5 14.3 21.8 1.6 4.7 2.6 10.1 2.6 17.8-0.3 26.6-21.1 53.1-53 53.1z"/>
  <path class="cls-0" d="m52.8 30.2c-2.1-0.4-2.2 0.5-2.8 1.3-0.9 1.3-1.6 1.4-2.7 0.8-3.8-1.7-6.6-3-11.6-3-6.9 0.1-14.8 3.5-17.5 11.7-0.8 3.2-0.9 5.9 0 10.2 1.3 4.2 3.9 7.7 7.8 10.1 5.9 3.7 13.5 5.1 18.2 8 3.2 1.9 4.9 4.3 4.8 8.7-0.3 5.8-4.7 11-11.7 11.1-8.2-0.2-13.5-6.2-16.8-16.5-0.3-1.1-1.4-1.1-2.5-0.8-0.9 0.4-0.9 0.7-0.8 1.5 0.4 5.3 1.2 15.6 1.5 18 0.2 0.9 1.8 0.9 2.5 0.7 1.1-0.5 1.9-2.9 3.5-2.9 1.2 0.2 4.4 2.4 9.7 3.5 1.5 0.3 3 0.4 4.5 0.4 8.8 0.1 17.8-4.9 18.9-16.6 0.4-3.9 0-8.8-3.4-13.5-4.6-5.5-11-7.3-17.4-9.8-2.5-0.9-4.8-2-6.6-3.2-3.2-2.5-4.4-4.7-4.3-8.4 0.3-2.8 2-5.9 5.3-7.5 1.3-0.6 2.7-1 4.6-1 6.4-0.2 11.3 4.1 14.7 10.7l1.4 3.4c0.2 0.7 0.3 1 0.6 1 0.8 0 2.2-0.2 2.2-0.7 0.3-0.3 0.1-0.8 0-2.3l-1.3-13.7c-0.1-1-0.4-1.1-0.8-1.2z"/>
  <path class="cls-0" d="m101.1 30.3h-40.4c-0.2 0.3-2.5 13.3-2.8 14.3-0.1 1 1.9 1.2 2.8 1.2 0.5 0 0.3 0.1 1.3-2.2 2.4-5.5 5.4-8.7 12.2-9.5 4-0.4 10-0.4 14.7-0.2l-32.5 53.1c-1.1 1.7-0.3 4.6 1 4.6h44.4c0.3 0 0.3-0.5 3.2-16.5 0.2-1-0.8-1.3-2-1.4-0.3 0-1 0-1 0.2-2.3 8.1-7.2 11.7-12.2 13-4.6 0.8-7.8 0.8-11.6 0.8h-8.4l32.1-52.4c1.2-1.9 0.5-5-0.8-5z"/>
</svg>