<svg xmlns="http://www.w3.org/2000/svg" viewBox="0 0 102 102">
<!-- SVG created with Arrow, by QuiverAI (https://quiver.ai) -->
  <style type="text/css">.cls-0 {fill:none;stroke:#000000;stroke-width:6.708;stroke-miterlimit:10;}</style>
  <path d="m51 6.2c18.2-0.1 34.7 11.5 41.4 27.8 1.7 4.5 3 9.7 3.1 15.7 0.3 7.9-1.7 15.9-5.9 23.3-1.7 2.9-3.3 5.1-5.5 7.5-2.4 2.7-5.5 5.4-8.9 7.6-5.3 3.3-12.3 6.6-21.6 7.6-1 0-1.9 0.1-2.9 0.1-4.6 0-7.3-0.4-11.1-1.3-5.5-1.3-10.5-3.8-14.6-6.7-8.8-6.2-16.4-16.8-18.2-30.2-0.3-2.3-0.4-4.6-0.3-7.6v-0.3c0.4-9.7 3.7-17.9 8.1-24.2 4.6-6.4 10-10.9 15.9-14 5.1-2.7 11.6-5.2 19.6-5.3h0.9zm-3.7-6.2c-8.5 0.6-15.4 3-20.8 5.8-5.5 2.9-10.4 6.8-14.6 11.5-2.3 2.7-4.4 5.5-6.2 8.7-2.6 4.8-4.5 9.8-5.5 15.9-1 5.6-1 12.6 0.2 18.9 0.6 3.3 1.6 6.6 2.7 9.5 1.8 4.3 4 8.4 6.7 12 1.6 2.1 3.3 4.1 5 5.8 1.4 1.3 2.9 2.7 4.6 4.9 4.6 3.4 9.6 6.2 15.2 7.7 3.9 1.3 7.9 1.9 12.5 2.1h8.2c1.6 0 3.3-0.1 4.8-0.4 7.6-1.2 13.5-3.5 18.6-6.3 1.6-1 3.2-2 4.7-3.2 0.2-0.2 1.2-1 1.6-1.3 0.9-0.8 1.9-1.7 3-2.8 1.7-1.8 3.4-3.8 5-6.1 4.5-6.4 7.8-13.9 8.9-23.4 1.1-8.1 0.2-17.5-2.3-24.4-1.1-3.3-2.6-6.3-4.1-9.1-5.7-9.5-13.9-17.4-23.9-22-4.6-2-9.7-3.5-15.7-4.1l-8.6 0.3z"/>
  <path d="m86.6 56.4m-23.9-20.1 7.1 13.8h-7l-0.1-13.8zm23.9 20.1v11.6l-6.3-11.6h6.3zm-0.6-1.7c-1.5-2.2-4.1-4.4-8.2-4.5h-0.7l-7.6-14.7h-13.6v14.7h-10.4v-14.7h-6.6v26.1 7.1h6.6v-12.3h10.4v12.3h6.8v-12.3h10.5l6.3 12.3h8.9v-8.2c0-2-0.6-4.1-1.8-5.8h-0.6zm-74.7-12.6h9.4v26.6h6.7v-26.6h9.8v-6.6h-25.9v6.6z"/>
  <circle class="cls-0" cx="51" cy="51" r="48"/>
</svg>